<?xml version="1.0" encoding="UTF-8"?>
<svg id="Layer_1" data-name="Layer 1" xmlns="http://www.w3.org/2000/svg" viewBox="0 0 90 90">
  <defs>
    <style>
      .cls-1 {
        fill: #231f20;
      }
    </style>
  </defs>
  <path class="cls-1" d="M60.53,40.36l-33.77-.3,6.51-6.19c.8-.76.83-2.03.07-2.83-.76-.8-2.03-.83-2.83-.07l-10.08,9.6s0,0-.01.01c-.08.07-.14.16-.21.24-.02.02-.04.04-.05.06-.13.18-.21.39-.27.6,0,.04-.03.07-.03.11-.01.05-.01.1-.02.14-.01.08-.03.17-.03.25,0,0,0,.01,0,.02,0,.05.01.09.01.14,0,.08,0,.16.02.23.01.06.03.12.05.18.02.07.03.13.06.19.02.06.06.12.09.18.03.06.05.12.09.17.04.06.09.12.14.18.03.04.06.08.09.12l9.6,10.08c.39.41.92.62,1.45.62.5,0,.99-.18,1.38-.55.8-.76.83-2.03.07-2.83l-6.34-6.66,33.99.3c3.14.03,5.7,2.61,5.7,5.75v7.48c0,1.1.9,2,2,2s2-.9,2-2v-7.48c0-5.33-4.33-9.7-9.66-9.75Z"/>
</svg>